# AST/ASF file generated using VICON BodyLanguage
# -----------------------------------------------
:version 1.10
:name VICON
:units
  mass 1.0
  length 0.45
  angle deg
:documentation
   .ast/.asf automatically generated from VICON data using
   VICON BodyBuilder and BodyLanguage model FoxedUp or BRILLIANT.MOD
:root
   order TX TY TZ RX RY RZ
   axis XYZ
   position 0 0 0  
   orientation 0 0 0 
:bonedata
  begin
     id 1 
     name lhipjoint
     direction 0.645422 -0.672597 0.361999 
     length 2.39934 
     axis 0 0 0  XYZ
  end
  begin
     id 2 
     name lfemur
     direction 0.34202 -0.939693 0  
     length 6.58112  
     axis 0 0 20  XYZ
    dof rx ry rz
    limits (-160.0 20.0)
           (-70.0 70.0)
           (-60.0 70.0)
  end
  begin
     id 3 
     name ltibia
     direction 0.34202 -0.939693 0   
     length 7.02673   
     axis 0 0 20   XYZ
    dof rx
    limits (-10.0 170.0)
  end
  begin
     id 4 
     name lfoot
     direction 0.0835106 -0.229444 0.969733   
     length 2.08772   
     axis -90 7.62852e-016 20   XYZ
    dof rx rz
    limits (-45.0 90.0)
           (-70.0 20.0)
  end
  begin
     id 5 
     name ltoes
     direction 1.5358e-011 -4.21925e-011 1   
     length 1.04844   
     axis -90 7.62852e-016 20   XYZ
    dof rx
    limits (-90.0 20.0)
  end
  begin
     id 6 
     name rhipjoint
     direction -0.644959 -0.672941 0.362185   
     length 2.39812  
     axis 0 0 0  XYZ 
  end
  begin
     id 7 
     name rfemur
     direction -0.34202 -0.939693 0   
     length 6.67015   
     axis 0 0 -20   XYZ
    dof rx ry rz
    limits (-160.0 20.0)
           (-70.0 70.0)
           (-70.0 60.0)
  end
  begin
     id 8 
     name rtibia
     direction -0.34202 -0.939693 0   
     length 7.35735   
     axis 0 0 -20   XYZ
    dof rx
    limits (-10.0 170.0)
 end
 begin
     id 9 
     name rfoot
     direction -0.0670769 -0.184292 0.98058   
     length 2.25469  
     axis -90 -7.62852e-016 -20   XYZ
    dof rx rz
    limits (-45.0 90.0)
           (-20.0 70.0)
  end
  begin
     id 10 
     name rtoes
     direction -1.53575e-011 -4.21908e-011 1   
     length 1.13399   
     axis -90 -7.62852e-016 -20   XYZ
    dof rx
    limits (-90.0 20.0)
  end
  begin
     id 11 
     name lowerback
     direction -0.0188328 0.993434 -0.112847   
     length 2.27656   
     axis 0 0 0   XYZ
    dof rx ry rz
    limits (-20.0 45.0)
           (-30.0 30.0)
           (-30.0 30.0)
  end
  begin
     id 12 
     name upperback
     direction 0.00983139 0.998968 -0.04435   
     length 2.28631   
     axis 0 0 0   XYZ
    dof rx ry rz
    limits (-20.0 45.0)
           (-30.0 30.0)
           (-30.0 30.0)
  end
  begin
     id 13 
     name thorax
     direction 0.0177718 0.999807 0.00833073   
     length 2.30999   
     axis 0 0 0   XYZ
    dof rx ry rz
    limits (-20.0 45.0)
           (-30.0 30.0)
           (-30.0 30.0)
  end
  begin
     id 14 
     name lowerneck
     direction -0.0835025 0.993181 0.0813558   
     length 1.39447   
     axis 0 0 0   XYZ
    dof rx ry rz
    limits (-20.0 45.0)
           (-30.0 30.0)
           (-30.0 30.0)
  end
  begin
     id 15 
     name upperneck
     direction 0.210059 0.976535 0.0474817   
     length 1.39882   
     axis 0 0 0   XYZ
    dof rx ry rz
    limits (-20.0 45.0)
           (-30.0 30.0)
           (-30.0 30.0)
  end
  begin
     id 16
     name head
     direction 0.0780891 0.996944 -0.00207154  
     length 1.41828  
     axis 0 0 0   XYZ
    dof rx ry rz
    limits (-20.0 45.0)
           (-30.0 30.0)
           (-30.0 30.0)
  end
  begin
     id 17 
     name lclavicle
     direction 0.982414 0.166355 -0.0847829  
     length 3.57922  
     axis 0 0 0   XYZ
    dof ry rz
    limits (-20.0 10.0)
           (0.0 20.0)
  end
  begin
     id 18 
     name lhumerus
     direction 1 -4.48975e-011 5.47647e-028   
     length 4.76405   
     axis -180 -30 -90   XYZ
    dof rx ry rz
    limits (-60.0 90.0)
           (-90.0 90.0)
           (-90.0 90.0)
  end
  begin
     id 19
     name lradius
     direction 1 -4.48949e-011 -8.32142e-027   
     length 3.13759   
     axis -180 -30 -90   XYZ
    dof rx
    limits (-10.0 170.0)
  end
  begin
     id 20
     name lwrist
     direction 1 -4.48978e-011 -1.32705e-026   
     length 1.56879   
     axis 9.60836e-015 90 90   XYZ
    dof ry
    limits (-180.0 0.0)
 end
  begin
     id 21 
     name lhand
     direction 1 -4.48975e-011 -2.65409e-026   
     length 0.732262   
     axis 1.69354e-014 90 90   XYZ
    dof rx rz
    limits (-90.0 90.0)
           (-45.0 45.0)
  end
  begin
     id 22 
     name lfingers
     direction 1 -4.48923e-011 -5.30819e-026   
     length 0.590368   
     axis 3.38708e-014 90 90   XYZ
    dof rx
    limits (0.0 90.0)
  end
  begin
     id 23
     name lthumb
     direction 0.707107 -6.34914e-011 0.707107   
     length 0.847654   
     axis -90 45 2.85299e-015   XYZ
    dof rx rz
    limits (-45.0 45.0)
           (-45.0 45.0)
  end
  begin
     id 24 
     name rclavicle
     direction -0.963658 0.245183 -0.106063   
     length 3.43472  
     axis 0 0 0   XYZ 
    dof ry rz
    limits (-10.0 20.0)
           (-20.0 0.0)
  end
  begin
     id 25 
     name rhumerus
     direction -1 -4.48963e-011 -1.64784e-027  
     length 5.10161   
     axis -180 30 90   XYZ
    dof rx ry rz
    limits (-90.0 60.0)
           (-90.0 90.0)
           (-90.0 90.0)
  end
  begin
     id 26 
     name rradius
     direction -1 -4.48969e-011 -2.87943e-027   
     length 3.23267   
     axis -180 30 90   XYZ
    dof rx
    limits (-10.0 170.0)
  end
  begin
     id 27 
     name rwrist
     direction -1 -4.48982e-011 -1.32705e-026   
     length 1.61633   
     axis 9.60836e-015 -90 -90   XYZ
    dof ry
    limits (-180.0 0.0)
  end
  begin
     id 28
     name rhand
     direction -1 -4.48963e-011 -2.65409e-026   
     length 0.702   
     axis 1.69354e-014 -90 -90   XYZ
    dof rx rz
    limits (-90.0 90.0)
           (-45.0 45.0)
  end
  begin
     id 29
     name rfingers
     direction -1 -4.48934e-011 -5.30819e-026   
     length 0.565971   
     axis 3.38708e-014 -90 -90   XYZ
    dof rx
    limits (0.0 90.0)
  end
  begin
     id 30
     name rthumb
     direction -0.707107 -6.34908e-011 0.707107   
     length 0.812624   
     axis -90 -45 -2.85299e-015   XYZ
    dof rx rz
    limits (-45.0 45.0)
           (-45.0 45.0)
  end
:hierarchy
  begin
    root lhipjoint rhipjoint lowerback
    lhipjoint lfemur
    lfemur ltibia
    ltibia lfoot
    lfoot ltoes
    rhipjoint rfemur
    rfemur rtibia
    rtibia rfoot
    rfoot rtoes
    lowerback upperback
    upperback thorax
    thorax lowerneck lclavicle rclavicle
    lowerneck upperneck
    upperneck head
    lclavicle lhumerus
    lhumerus lradius
    lradius lwrist
    lwrist lhand lthumb
    lhand lfingers
    rclavicle rhumerus
    rhumerus rradius
    rradius rwrist
    rwrist rhand rthumb
    rhand rfingers
  end

#!OML:ASF \\sashay\E\basketball\basketball\Project 1\Capture day 1\Session 1\Subject.ASF
:FULLY-SPECIFIED
:DEGREES
69
root -3.40819 14.3908 7.83915 -170.79 -21.448 166.94
lowerback 21.2889 2.80918 0.595208
upperback 9.16305 2.46654 3.0408
thorax -2.03985 0.581293 2.37188
lowerneck 0.323479 -13.6487 -7.40464
upperneck -23.2119 -16.6485 26.6862
head -3.6781 -10.3528 9.92678
rclavicle -6.36111e-015 7.31528e-014
rhumerus 20.6981 -29.8519 -97.3239
rradius 19.6542
rwrist 45.4507
rhand -27.7688 51.5372
rfingers 7.12502
rthumb -1.16262 21.5606
lclavicle -6.36111e-015 7.31528e-014
lhumerus -50.1629 -3.83387 95.6754
lradius 60.1006
lwrist 11.1136
lhand -32.2167 34.87
lfingers 7.12502
lthumb -5.45796 64.7798
rfemur -40.8305 -15.8687 3.70278
rtibia 79.0643
rfoot -24.2412 -16.1292
rtoes -32.5184
lfemur -5.78544 3.04243 -4.85912
ltibia 21.6825
lfoot -20.6625 29.8831
ltoes -9.78881
70
root -3.11013 14.3655 7.66169 -169.721 -18.2039 166.282
lowerback 20.5505 2.95859 -0.37601
upperback 9.0501 2.49831 2.37614
thorax -1.81188 0.607906 2.21826
lowerneck -0.30075 -12.8012 -6.62659
upperneck -22.3856 -15.6578 25.6669
head -3.69137 -9.78664 9.45338
rclavicle 3.49861e-014 -6.36111e-015
rhumerus 17.5951 -25.1187 -96.4467
rradius 21.1094
rwrist 43.8093
rhand -30.327 53.6497
rfingers 7.12502
rthumb -3.63323 23.7009
lclavicle 3.49861e-014 -6.36111e-015
lhumerus -49.1265 -3.62308 96.19
lradius 63.8468
lwrist 10.6516
lhand -32.6046 33.4966
lfingers 7.12502
lthumb -5.83248 63.3963
rfemur -42.1523 -17.2744 5.14018
rtibia 78.9405
rfoot -26.7189 -16.9846
rtoes -31.2717
lfemur -6.35757 -0.135295 -6.14262
ltibia 21.6566
lfoot -22.1815 32.4075
ltoes -6.98396
71
root -2.82028 14.3376 7.48033 -169.438 -15.3297 166.251
lowerback 20.1854 2.97282 -0.490675
upperback 9.12269 2.45431 1.85471
thorax -1.53107 0.583805 1.74654
lowerneck -0.581198 -11.9915 -6.49498
upperneck -21.8543 -14.6784 25.4159
head -3.68375 -9.28228 9.36213
rclavicle 1.27222e-014 -4.77083e-014
rhumerus 14.3397 -18.1286 -94.8662
rradius 23.512
rwrist 37.8406
rhand -31.8458 56.1293
rfingers 7.12502
rthumb -5.09988 26.2107
lclavicle 1.27222e-014 -4.77083e-014
lhumerus -47.7255 -3.13216 96.7026
lradius 67.4523
lwrist 9.1763
lhand -32.7479 32.2551
lfingers 7.12502
lthumb -5.97082 62.151
rfemur -42.4221 -17.9282 6.81027
rtibia 78.3882
rfoot -29.2084 -16.8154
rtoes -31.0887
lfemur -7.18297 -1.26484 -6.75011
ltibia 22.8323
lfoot -20.7056 32.5515
ltoes -12.7993
72
root -2.52489 14.3226 7.28721 -169.553 -12.7196 166.295
lowerback 20.0309 2.98856 -0.720093
upperback 9.33347 2.35339 1.65296
thorax -1.2248 0.49984 1.68924
lowerneck -0.640053 -11.2792 -7.25743
upperneck -21.5882 -13.7973 25.7403
head -3.6336 -8.8354 9.62032
rclavicle 5.08889e-014 -6.67916e-014
rhumerus 11.6283 -11.4529 -93.4646
rradius 26.4018
rwrist 31.5103
rhand -31.9269 59.3432
rfingers 7.12502
rthumb -5.17811 29.4265
lclavicle 5.08889e-014 -6.67916e-014
lhumerus -46.0694 -2.90451 98.1033
lradius 71.3112
lwrist 9.23763
lhand -34.1979 31.36
lfingers 7.12502
lthumb -7.37057 61.2117
rfemur -42.3531 -17.9162 8.50159
rtibia 77.7343
rfoot -31.8466 -15.9508
rtoes -30.1574
lfemur -8.35586 -1.06646 -7.35106
ltibia 25.0529
lfoot -19.4153 28.3131
ltoes -9.68021
73
root -2.21058 14.2985 7.10068 -169.883 -10.4497 166.712
lowerback 20.1199 3.03377 -0.82158
upperback 9.5826 2.29377 1.73101
thorax -1.00672 0.421625 1.84289
lowerneck -0.825904 -10.7387 -7.82964
upperneck -21.5636 -13.1402 25.7058
head -3.65885 -8.49344 9.73233
rclavicle 1.59028e-015 6.04305e-014
rhumerus 9.33504 -5.86205 -92.3362
rradius 29.475
rwrist 26.819
rhand -31.5581 62.5899
rfingers 7.12502
rthumb -4.82204 32.6648
lclavicle 1.59028e-015 6.04305e-014
lhumerus -43.8786 -2.74893 99.5349
lradius 74.894
lwrist 8.13215
lhand -34.267 30.8202
lfingers 7.12502
lthumb -7.43727 60.6694
rfemur -42.2048 -17.941 10.761
rtibia 77.3438
rfoot -34.0507 -15.0895
rtoes -27.2582
lfemur -10.1157 -0.333884 -7.50057
ltibia 28.1805
lfoot -16.6547 23.9051
ltoes -20.8417
74
root -1.88277 14.2549 6.92879 -170.39 -8.61182 167.277
lowerback 20.6666 2.99584 -0.844968
upperback 9.72715 2.13354 1.92166
thorax -1.12715 0.29173 2.08475
lowerneck -0.912275 -10.1888 -8.33494
upperneck -21.5061 -12.4712 25.506
head -3.72018 -8.13396 9.78724
rclavicle -3.18055e-015 1.90833e-014
rhumerus 7.08773 -1.19304 -91.4094
rradius 32.3646
rwrist 24.6793
rhand -31.8543 65.7308
rfingers 7.12502
rthumb -5.10804 35.8124
lclavicle -3.18055e-015 1.90833e-014
lhumerus -41.4158 -2.73637 100.923
lradius 78.1649
lwrist 6.72413
lhand -34.3327 30.5999
lfingers 7.12502
lthumb -7.50075 60.4469
rfemur -41.9196 -18.1553 13.221
rtibia 77.2922
rfoot -35.6998 -13.7375
rtoes -21.5073
lfemur -12.2582 0.854542 -7.43735
ltibia 31.766
lfoot -15.3392 17.6614
ltoes -31.2927
75
root -1.54706 14.1936 6.77514 -170.956 -7.38643 167.295
lowerback 21.2009 2.80093 -0.651086
upperback 10.1627 1.73093 1.64355
thorax -0.889414 0.0323835 1.76015
lowerneck -0.764145 -9.57768 -9.94584
upperneck -21.622 -11.6773 26.4262
head -3.70599 -7.75663 10.443
rclavicle 0 2.54444e-014
rhumerus 5.72795 1.66116 -91.1961
rradius 34.469
rwrist 25.2414
rhand -32.7782 68.8782
rfingers 7.12502
rthumb -6.00005 38.9832
lclavicle 0 2.54444e-014
lhumerus -38.0466 -3.81084 101.595
lradius 81.0316
lwrist 5.61747
lhand -33.7614 30.4428
lfingers 7.12502
lthumb -6.94923 60.3087
rfemur -41.5485 -19.0031 15.0676
rtibia 77.7092
rfoot -36.4916 -13.0951
rtoes -18.0544
lfemur -14.8811 2.22331 -8.03111
ltibia 35.799
lfoot -14.8899 11.3754
ltoes -38.5146
76
root -1.21869 14.1418 6.59958 -171.984 -5.81417 167
lowerback 21.9631 2.77324 -0.811192
upperback 10.7806 1.39788 1.21083
thorax -0.577488 -0.231634 1.45538
lowerneck -0.592865 -8.9245 -12.2925
upperneck -21.5288 -10.8366 27.8443
head -3.56323 -7.32797 11.4167
rclavicle -1.90833e-014 -7.31528e-014
rhumerus 4.73884 3.71281 -91.217
rradius 35.7431
rwrist 26.835
rhand -33.7859 71.8521
rfingers 7.12502
rthumb -6.97292 41.9869
lclavicle -1.90833e-014 -7.31528e-014
lhumerus -34.1848 -5.27861 102.039
lradius 83.464
lwrist 5.1698
lhand -33.6689 30.5963
lfingers 7.12502
lthumb -6.85996 60.4651
rfemur -40.4657 -18.5347 16.1066
rtibia 78.0407
rfoot -36.4834 -13.3187
rtoes -17.3518
lfemur -16.8641 3.74946 -9.30122
ltibia 40.0324
lfoot -16.7589 7.10313
ltoes -40.4057
77
root -0.885003 14.1014 6.4166 -173.164 -4.21363 166.673
lowerback 22.793 2.84055 -1.18107
upperback 11.3757 1.12401 0.86402
thorax -0.328316 -0.486096 1.34837
lowerneck -0.708959 -8.43912 -11.8467
upperneck -21.7684 -10.2318 27.3237
head -3.82374 -7.07326 11.2239
rclavicle 3.49861e-014 5.08889e-014
rhumerus 3.71313 5.60014 -91.0184
rradius 36.7496
rwrist 27.5225
rhand -34.7143 74.2948
rfingers 7.12502
rthumb -7.86902 44.4612
lclavicle 3.49861e-014 5.08889e-014
lhumerus -29.9231 -6.5538 102.206
lradius 85.0624
lwrist 3.87892
lhand -33.2695 30.7562
lfingers 7.12502
lthumb -6.47436 60.6373
rfemur -39.172 -18.7029 16.9409
rtibia 78.3847
rfoot -36.5082 -11.8597
rtoes -14.7172
lfemur -18.6342 4.99066 -10.6981
ltibia 44.2826
lfoot -16.6895 10.0272
ltoes -35.7972
78
root -0.545868 14.0864 6.22626 -174.28 -2.74973 166.553
lowerback 23.3981 2.88099 -1.24912
upperback 11.9281 0.885689 0.495598
thorax -0.00263845 -0.70539 1.03937
lowerneck -0.644565 -7.9924 -10.4228
upperneck -22.1988 -9.69161 25.9731
head -4.29222 -6.86937 10.586
rclavicle -6.36111e-015 -3.02153e-014
rhumerus 3.2543 5.73754 -91.3427
rradius 36.3168
rwrist 28.3637
rhand -35.2512 76.6724
rfingers 7.12502
rthumb -8.38718 46.8589
lclavicle -6.36111e-015 -3.02153e-014
lhumerus -25.345 -7.9605 101.845
lradius 85.868
lwrist 2.29516
lhand -32.6484 30.7978
lfingers 7.12502
lthumb -5.87477 60.6964
rfemur -37.4993 -18.3957 18.0286
rtibia 78.2405
rfoot -36.0923 -11.3212
rtoes -12.7993
lfemur -20.503 6.00909 -11.7979
ltibia 48.3668
lfoot -16.8435 13.161
ltoes -27.1244
79
root -0.21794 14.0898 6.02919 -175.291 -1.3766 166.771
lowerback 23.8286 2.84905 -0.666539
upperback 12.3758 0.725868 0.0126049
thorax 0.310918 -0.832156 0.220406
lowerneck -0.421823 -7.61049 -10.1718
upperneck -21.9804 -9.21116 25.8277
head -4.38938 -6.65044 10.5198
rclavicle 3.18055e-015 -3.65764e-014
rhumerus 2.75188 5.56564 -91.6412
rradius 35.5248
rwrist 28.255
rhand -35.1616 77.6174
rfingers 7.12502
rthumb -8.30069 47.8004
lclavicle 3.18055e-015 -3.65764e-014
lhumerus -20.6181 -9.84015 100.819
lradius 85.95
lwrist 0.882037
lhand -32.4947 30.5493
lfingers 7.12502
lthumb -5.72639 60.452
rfemur -35.5245 -17.8689 19.3979
rtibia 77.6343
rfoot -35.6428 -10.9997
rtoes -11.2449
lfemur -22.5532 7.1745 -12.5502
ltibia 52.1716
lfoot -17.784 14.7096
ltoes -24.4154
80
root 0.0986668 14.0956 5.82958 -176.266 0.0197095 167.137
lowerback 24.3199 2.8431 0.0993107
upperback 12.65 0.689356 -0.427734
thorax 0.410486 -0.866082 -0.683779
lowerneck -0.221825 -7.41964 -11.0229
upperneck -21.0523 -8.97938 26.4163
head -4.09123 -6.45171 10.8247
rclavicle 1.59028e-015 -3.18055e-014
rhumerus 2.26048 4.7488 -91.8031
rradius 34.131
rwrist 28.3507
rhand -34.7767 76.9528
rfingers 7.12502
rthumb -7.92927 47.1215
lclavicle 1.59028e-015 -3.18055e-014
lhumerus -15.9511 -11.6237 99.4342
lradius 85.3704
lwrist -0.966378
lhand -32.5276 30.567
lfingers 7.12502
lthumb -5.7581 60.4687
rfemur -33.2661 -17.2919 20.7716
rtibia 76.6125
rfoot -35.2599 -10.4498
rtoes -9.64663
lfemur -24.6862 8.54387 -13.1995
ltibia 55.5817
lfoot -18.1407 14.0371
ltoes -26.2223
81
root 0.425459 14.1051 5.61649 -177.159 1.77221 167.346
lowerback 24.6032 -0.730969 -1.45511
upperback 12.7169 2.02163 -1.5008
thorax 0.39673 2.34086 -1.25014
lowerneck -0.399919 -7.30048 -12.7137
upperneck -19.1182 -8.8994 27.5379
head -3.31217 -6.20591 11.3654
rclavicle 1.82882e-014 2.06736e-014
rhumerus 1.76816 3.24544 -91.8804
rradius 32.3407
rwrist 29.1922
rhand -34.1174 74.3915
rfingers 7.12502
rthumb -7.29285 44.5372
lclavicle 1.82882e-014 2.06736e-014
lhumerus -11.4075 -12.8136 97.8916
lradius 84.1892
lwrist -3.28536
lhand -32.6933 31.1102
lfingers 7.12502
lthumb -5.91812 61.0075
rfemur -30.7537 -16.5052 21.9762
rtibia 75.1894
rfoot -34.9585 -9.92906
rtoes -7.91689
lfemur -26.7884 10.1772 -13.9319
ltibia 58.5716
lfoot -17.9931 12.8344
ltoes -29.7308
82
root 0.759515 14.1203 5.40012 -177.913 3.38973 167.417
lowerback 24.8164 -0.525033 -1.45813
upperback 12.7154 2.26042 -1.90748
thorax 0.317399 2.47209 -1.75169
lowerneck -0.131936 -7.23489 -12.6936
upperneck -18.0983 -8.87617 27.316
head -3.08932 -6.0935 11.221
rclavicle 6.36111e-015 7.95139e-015
rhumerus 1.23904 0.810111 -92.0005
rradius 30.3801
rwrist 30.7082
rhand -33.6194 70.7272
rfingers 7.12502
rthumb -6.81221 40.8568
lclavicle 6.36111e-015 7.95139e-015
lhumerus -7.06372 -13.7616 96.1212
lradius 82.6008
lwrist -5.06305
lhand -32.9973 31.7903
lfingers 7.12502
lthumb -6.21161 61.6792
rfemur -28.1417 -15.7969 23.0477
rtibia 73.4778
rfoot -34.5953 -9.58647
rtoes -6.62296
lfemur -29.0821 11.1077 -14.7993
ltibia 61.1709
lfoot -18.2469 11.1283
ltoes -29.5743
